<svg width="21" height="22" viewBox="0 0 21 22" fill="none" xmlns="http://www.w3.org/2000/svg">
<path fill-rule="evenodd" clip-rule="evenodd" d="M7.29561 3.26831L9.60296 6.1525L9.4871 6.21686H13.3204L10.9615 3.26831H7.29561ZM17.9512 6.21686H15.124L15.2399 6.1525L12.9325 3.26831H15.1761C16.7087 3.26831 17.9512 4.51075 17.9512 6.04338V6.21686ZM7.68345 6.21686L5.33738 3.28428C3.94558 3.43361 2.86176 4.61192 2.86176 6.04338V6.21686H7.68345ZM2.86176 15.5827V7.77784H17.9512V15.5827C17.9512 17.1153 16.7087 18.3577 15.1761 18.3577H5.63682C4.1042 18.3577 2.86176 17.1153 2.86176 15.5827ZM5.63682 1.70734C3.24209 1.70734 1.30078 3.64865 1.30078 6.04338V15.5827C1.30078 17.9774 3.24209 19.9187 5.63682 19.9187H15.1761C17.5709 19.9187 19.5122 17.9774 19.5122 15.5827V6.04338C19.5122 3.64865 17.5709 1.70734 15.1761 1.70734H5.63682ZM13.2249 12.923C13.5139 12.7561 13.5139 12.3388 13.2249 12.1719L8.67202 9.54335C8.38295 9.37646 8.02161 9.58508 8.02161 9.91887L8.02161 15.176C8.02161 15.5098 8.38295 15.7184 8.67202 15.5516L13.2249 12.923Z" fill="#333333"/>
</svg>
