<svg width="24" height="24" viewBox="0 0 24 24" fill="none" xmlns="http://www.w3.org/2000/svg">
<path fill-rule="evenodd" clip-rule="evenodd" d="M22.0769 3.96369C21.8655 3.59217 21.4677 3.37726 21.0498 3.37726L2.95784 3.3904C2.45399 3.39045 2.01717 3.70162 1.84255 4.16528L1.84238 4.16572C1.71667 4.50095 1.74486 4.86667 1.91747 5.16873L1.91988 5.17295L1.92241 5.1771C1.98737 5.2834 2.06986 5.38352 2.16977 5.47168L9.05621 11.4102L10.7347 20.3261L10.7348 20.3267C10.8265 20.8207 11.2089 21.1886 11.7046 21.2672C12.1953 21.3456 12.6782 21.1146 12.9303 20.6884L12.9307 20.6877L22.0706 5.15083L21.8676 4.79816C21.8676 4.79802 21.8677 4.79787 21.8677 4.79773L22.0708 5.15043C22.2885 4.78122 22.2897 4.33008 22.0769 3.96369ZM21.2538 3.73152L21.0498 3.37726L21.2537 3.73149C21.2537 3.7315 21.2538 3.73151 21.2538 3.73152ZM10.091 9.68017L5.07803 5.3528H17.6743L10.091 9.68017ZM12.2908 17.8762L11.0688 11.3839L18.6669 7.05072L12.2908 17.8762Z" fill="#333333"/>
</svg>
