<svg width="24" height="24" viewBox="0 0 24 24" fill="none" xmlns="http://www.w3.org/2000/svg">
<path fill-rule="evenodd" clip-rule="evenodd" d="M21.2947 21.1594L20.2164 17.1379C20.1546 16.9125 20.1855 16.6694 20.2916 16.4573C21.2329 14.5703 21.5466 12.3165 20.9677 9.96547C20.1811 6.78362 17.6975 4.22931 14.5245 3.38524C13.6583 3.15986 12.8054 3.04938 11.979 3.04938C6.0484 3.04938 1.41705 8.61318 3.01681 14.8045C3.75924 17.6682 6.81734 20.6335 9.69426 21.3317C10.472 21.5217 11.2366 21.6101 11.979 21.6101C13.5743 21.6101 15.068 21.1991 16.3805 20.4921C16.5264 20.4125 16.6899 20.3683 16.849 20.3683C16.9285 20.3683 17.0081 20.3772 17.0876 20.3993L21.0031 21.4466C21.0252 21.451 21.0473 21.4555 21.0649 21.4555C21.2152 21.4555 21.3345 21.314 21.2947 21.1594ZM18.9791 17.4693L19.5889 19.7452L17.4191 19.1663C17.2335 19.1177 17.0434 19.0912 16.849 19.0912C16.4778 19.0912 16.1021 19.1884 15.7663 19.3696C14.5863 20.006 13.3136 20.3286 11.979 20.3286C11.3205 20.3286 10.6532 20.2446 9.99477 20.0855C7.55977 19.4933 4.8773 16.8771 4.25861 14.4819C3.6134 11.9806 4.12161 9.41306 5.65067 7.43767C7.17972 5.46228 9.48656 4.33095 11.979 4.33095C12.7126 4.33095 13.4594 4.42818 14.1975 4.62704C16.9241 5.35179 19.0409 7.51722 19.7259 10.2748C20.2076 12.2193 20.0087 14.1593 19.147 15.8872C18.8995 16.3822 18.8376 16.9434 18.9791 17.4693Z" fill="#333333"/>
<path fill-rule="evenodd" clip-rule="evenodd" d="M3.36125 14.7154C1.821 8.75419 6.276 3.40513 11.979 3.40513C12.7733 3.40513 13.5958 3.51127 14.4339 3.72927C17.4796 4.53983 19.8666 6.99387 20.6224 10.0508C21.1807 12.3187 20.8773 14.4859 19.9734 16.2982C19.8321 16.5808 19.7862 16.9134 19.8731 17.2309C19.8732 17.2313 19.8733 17.2317 19.8734 17.232L20.8971 21.05L17.1829 20.0565C17.1823 20.0563 17.1817 20.0561 17.1811 20.056C17.0662 20.0243 16.9546 20.0126 16.849 20.0126C16.6259 20.0126 16.4045 20.0739 16.211 20.1793C14.9476 20.8597 13.5119 21.2544 11.979 21.2544C11.265 21.2544 10.5288 21.1694 9.77871 20.9861L9.77818 20.986C8.41701 20.6556 6.98753 19.7799 5.80347 18.6254C4.61931 17.4708 3.71196 16.068 3.36125 14.7154ZM11.979 4.68671C9.59675 4.68671 7.39375 5.76699 5.93201 7.65542C4.47284 9.54054 3.98432 11.9941 4.60308 14.3929C4.8914 15.5091 5.67241 16.7077 6.69412 17.7053C7.71546 18.7025 8.94055 19.4629 10.0787 19.7398C10.7116 19.8927 11.3508 19.9728 11.979 19.9728C13.2543 19.9728 14.469 19.665 15.5974 19.0564C15.9831 18.8484 16.4165 18.7354 16.849 18.7354C17.0761 18.7354 17.2965 18.7664 17.5092 18.8221L17.5108 18.8225L19.086 19.2428L18.6355 17.5617C18.4706 16.9486 18.5438 16.2981 18.8288 15.7281C19.651 14.0793 19.8428 12.2264 19.3806 10.3606C18.7266 7.72739 16.706 5.66191 14.1061 4.97086L14.1049 4.97054C13.3969 4.77978 12.6812 4.68671 11.979 4.68671Z" fill="#333333"/>
<path fill-rule="evenodd" clip-rule="evenodd" d="M11.979 2.6936C5.82084 2.6936 1.01316 8.47211 2.67236 14.8935C3.06412 16.4046 4.05708 17.9164 5.30675 19.1349C6.55644 20.3534 8.09425 21.3093 9.60983 21.6773C10.4153 21.8741 11.2082 21.9659 11.979 21.9659C13.6365 21.9659 15.1879 21.5387 16.5493 20.8053L16.5509 20.8044C16.6489 20.7509 16.7543 20.7241 16.849 20.7241C16.9019 20.7241 16.9488 20.7299 16.9924 20.7421L20.9221 21.7932L20.9333 21.7955L20.9365 21.7961C20.9526 21.7995 21.0089 21.8112 21.0649 21.8112C21.4368 21.8112 21.7397 21.4609 21.6393 21.0708L20.5601 17.0457L20.5595 17.0437C20.523 16.9108 20.5393 16.7574 20.6099 16.6161C21.5884 14.6545 21.9124 12.314 21.3131 9.88008C20.4957 6.57366 17.9158 3.91924 14.6159 3.04142L14.6141 3.04093C13.7202 2.80834 12.8372 2.6936 11.979 2.6936ZM11.979 3.40513C6.276 3.40513 1.821 8.75419 3.36125 14.7154C3.71196 16.068 4.61931 17.4708 5.80347 18.6254C6.98753 19.7799 8.41701 20.6556 9.77818 20.986L9.77871 20.9861C10.5288 21.1694 11.265 21.2544 11.979 21.2544C13.5119 21.2544 14.9476 20.8597 16.211 20.1793C16.4045 20.0739 16.6259 20.0126 16.849 20.0126C16.9546 20.0126 17.0662 20.0243 17.1811 20.056L17.1829 20.0565L20.8971 21.05L19.8734 17.232L19.8731 17.2309C19.7862 16.9134 19.8321 16.5808 19.9734 16.2982C20.8773 14.4859 21.1807 12.3187 20.6224 10.0508C19.8666 6.99387 17.4796 4.53983 14.4339 3.72927C13.5958 3.51127 12.7733 3.40513 11.979 3.40513Z" fill="#333333"/>
</svg>
