<svg width="24" height="24" viewBox="0 0 24 24" fill="none" xmlns="http://www.w3.org/2000/svg">
<path d="M19.4228 2.43054H4.5356C3.95074 2.43054 3.47223 2.86153 3.47223 3.39421V22.0575C3.47223 22.5902 3.81782 22.7258 4.24849 22.3529L11.5485 16.0479C11.7186 15.9026 12.0004 15.9026 12.1706 16.043L19.7045 22.3674C20.1352 22.7306 20.4861 22.5902 20.4861 22.0575V3.39421C20.4861 2.86153 20.0129 2.43054 19.4228 2.43054ZM18.8911 19.7137L13.2499 14.9777C12.8565 14.6484 12.362 14.4837 11.8622 14.4837C11.3518 14.4837 10.8467 14.6532 10.4532 14.9922L5.06728 19.6459V3.88332H18.8911V19.7137Z" fill="#333333"/>
<path fill-rule="evenodd" clip-rule="evenodd" d="M3.125 3.38405C3.125 2.62995 3.78962 2.08331 4.52178 2.08331H19.4366C20.1752 2.08331 20.8333 2.63098 20.8333 3.38405V22.0674C20.8333 22.3858 20.7261 22.7394 20.3931 22.8717C20.0793 22.9964 19.753 22.8433 19.5072 22.6363C19.5071 22.6362 19.5073 22.6363 19.5072 22.6363L11.9618 16.3071C11.9615 16.307 11.9613 16.3068 11.9611 16.3066C11.9126 16.2674 11.8089 16.2682 11.7616 16.308C11.7614 16.3082 11.7613 16.3083 11.7611 16.3084L4.44928 22.6187C4.20693 22.8284 3.88204 22.9907 3.56613 22.8695C3.22892 22.74 3.125 22.3818 3.125 22.0674V3.38405ZM4.52178 2.75538C4.08206 2.75538 3.78788 3.07164 3.78788 3.38405V22.0674C3.78788 22.1553 3.80082 22.208 3.81138 22.2349C3.81555 22.2338 3.82038 22.2324 3.82591 22.2306C3.86751 22.2165 3.93337 22.1816 4.019 22.1075L11.3329 15.7954L11.3343 15.7942C11.6278 15.5438 12.0876 15.5445 12.3801 15.7858L12.3822 15.7875L19.9307 22.1192C20.0154 22.1906 20.0806 22.2237 20.122 22.2368C20.1308 22.2396 20.1379 22.2413 20.1434 22.2423C20.1548 22.2175 20.1705 22.1632 20.1705 22.0674V3.38405C20.1705 3.07062 19.8805 2.75538 19.4366 2.75538H4.52178ZM20.1593 22.2437C20.1593 22.2437 20.159 22.2438 20.1584 22.2438L20.1593 22.2437ZM3.79008 22.2382C3.79009 22.2382 3.79039 22.2382 3.79098 22.2382L3.79008 22.2382ZM4.72301 3.53765H19.2353V20.4353L13.0413 15.2392C13.0413 15.2391 13.0414 15.2392 13.0413 15.2392C12.7111 14.9631 12.2917 14.8215 11.862 14.8215C11.4214 14.8215 10.9935 14.9677 10.6649 15.2506L4.72301 20.3807V3.53765ZM5.38589 4.20971V18.9257L10.2359 14.7383C10.6956 14.3426 11.2798 14.1494 11.862 14.1494C12.4335 14.1494 13.0051 14.3376 13.4632 14.7207L13.4635 14.7211L18.5724 19.0069V4.20971H5.38589Z" fill="#333333"/>
</svg>
