<svg width="24" height="24" viewBox="0 0 24 24" fill="none" xmlns="http://www.w3.org/2000/svg">
<path fill-rule="evenodd" clip-rule="evenodd" d="M7.93016 4.18092C6.96468 4.18092 6.01268 4.45312 5.16934 4.96932C2.55924 6.56918 1.64069 10.141 3.15674 12.9285C3.44041 13.4505 3.94845 14.0774 4.60078 14.7566C5.24948 15.432 6.02596 16.144 6.83181 16.8359C8.44336 18.2197 10.1582 19.5115 11.1714 20.2534L11.1717 20.2536C11.4145 20.4317 11.6997 20.525 11.9993 20.525C12.2984 20.525 12.5842 20.4321 12.8323 20.2528C13.8456 19.5108 15.56 18.2194 17.1711 16.8359C17.977 16.144 18.7534 15.432 19.4021 14.7566C20.0545 14.0774 20.5624 13.4506 20.8461 12.9286C22.3581 10.1409 21.4394 6.56899 18.8292 4.96921C17.9859 4.45309 17.034 4.18092 16.0685 4.18092C14.622 4.18092 13.2604 4.76464 12.2368 5.81007L11.9993 6.05259L11.7619 5.81007C10.7382 4.76464 9.3767 4.18092 7.93016 4.18092ZM4.82121 4.4157C5.76579 3.83755 6.83784 3.52942 7.93016 3.52942C9.45142 3.52942 10.8853 4.10298 11.9993 5.12727C13.1134 4.10298 14.5473 3.52942 16.0685 3.52942C17.1609 3.52942 18.2329 3.83755 19.1775 4.4157C22.0997 6.20671 23.0955 10.1625 21.4282 13.2362C21.1026 13.8355 20.5462 14.5126 19.8815 15.2047C19.2131 15.9006 18.4196 16.6276 17.6046 17.3274C15.9745 18.7271 14.2443 20.0303 13.225 20.7766L13.2235 20.7776C12.8645 21.0374 12.4422 21.1765 11.9993 21.1765C11.5569 21.1765 11.1336 21.0376 10.7776 20.7763C9.75833 20.03 8.02823 18.727 6.39828 17.3274C5.58331 16.6276 4.78983 15.9006 4.12145 15.2047C3.45673 14.5126 2.90053 13.8358 2.57487 13.2365M4.82121 4.4157C1.89905 6.2067 0.903135 10.1627 2.57487 13.2365L4.82121 4.4157ZM5.49182 5.46852C6.23377 5.01489 7.07382 4.773 7.93016 4.773C9.43233 4.773 10.8221 5.48995 11.7574 6.71877L11.7583 6.72002L11.9993 7.03991L12.2404 6.72002L12.2413 6.71877C13.1767 5.48981 14.5708 4.773 16.0685 4.773C16.9246 4.773 17.7649 5.01475 18.5031 5.4688C20.8746 6.92109 21.6693 10.144 20.3063 12.648C20.001 13.2091 19.4441 13.8642 18.7801 14.5366C18.111 15.2141 17.3134 15.9287 16.5073 16.6098C14.895 17.9725 13.234 19.2139 12.4663 19.7773L12.4646 19.7785C12.1881 19.9788 11.8064 19.9788 11.5299 19.7785L11.5287 19.7777C10.7606 19.2161 9.09955 17.9756 7.48713 16.613C6.68107 15.9318 5.88345 15.2169 5.21431 14.5388C4.55033 13.8659 3.99353 13.2102 3.68815 12.648M5.83998 6.0221C3.78363 7.28524 3.06089 10.1186 4.26992 12.3398C4.52962 12.818 5.03236 13.4205 5.68746 14.0844C6.33751 14.7431 7.11882 15.4439 7.91671 16.1182C9.51162 17.466 11.158 18.6957 11.921 19.2536C11.9647 19.285 12.0292 19.2851 12.073 19.2539C12.8364 18.6937 14.4828 17.4629 16.0778 16.1151C16.8757 15.4407 17.657 14.7402 18.3071 14.0819C18.9622 13.4185 19.4649 12.817 19.7245 12.3398C20.9338 10.1183 20.2105 7.28098 18.1546 6.02218L18.154 6.02182C17.5177 5.63036 16.7979 5.42449 16.0685 5.42449C14.7919 5.42449 13.5887 6.03392 12.7699 7.10933C12.7697 7.10954 12.7695 7.10976 12.7694 7.10997L11.9993 8.1319L11.2293 7.10997C11.2291 7.10974 11.229 7.10951 11.2288 7.10928C10.4099 6.03376 9.21078 5.42449 7.93016 5.42449C7.2011 5.42449 6.48106 5.63022 5.83998 6.0221ZM5.49182 5.46852L5.49126 5.46886L5.49182 5.46852ZM5.49126 5.46886C3.12023 6.92507 2.32509 10.1437 3.68815 12.648L5.49126 5.46886Z" fill="#333333"/>
<path d="M11.9993 20.8235C11.6291 20.8235 11.2757 20.7078 10.977 20.4888C8.94928 19.0054 4.10287 15.3155 2.88706 13.0801C1.29683 10.1588 2.25181 6.40697 5.01157 4.71699C5.90345 4.17156 6.91312 3.88232 7.93961 3.88232C9.47515 3.88232 10.9181 4.50212 11.9993 5.60537C13.0805 4.50212 14.5235 3.88232 16.059 3.88232C17.0855 3.88232 18.0952 4.17156 18.9871 4.71699C21.7469 6.40697 22.7018 10.1588 21.1158 13.0801C19.9 15.3155 15.0536 19.0054 13.0258 20.4888C12.7229 20.7078 12.3695 20.8235 11.9993 20.8235ZM7.93961 5.12192C7.14871 5.12192 6.37042 5.34505 5.68048 5.76651C3.47182 7.12181 2.71457 10.1382 3.99769 12.4934C5.12516 14.5677 10.1988 18.3774 11.7259 19.493C11.8857 19.6087 12.1087 19.6087 12.2686 19.493C13.7957 18.3732 18.8693 14.5635 19.9968 12.4934C21.2799 10.1382 20.5226 7.11768 18.314 5.76651C17.6282 5.34505 16.85 5.12192 16.059 5.12192C14.675 5.12192 13.3792 5.78304 12.5042 6.93174L11.9993 7.60112L11.4945 6.93174C10.6194 5.78304 9.32791 5.12192 7.93961 5.12192Z" fill="#333333"/>
</svg>
